Coordinates
version=1
nRows=65
nColumns=12
inDegrees=yes

Units are S.I. units (second, meters, Newtons, ...)
Angles are in degrees

endheader
time	SC_y	SC_z	SC_x	AC_y	AC_z	AC_x	GH_y	GH_z	GH_yy	EL_x	PS_y
       0.0              -52.63          11.54          21.73          66.87         -5.689          10.28          50.75          64.76          179.0          130.0          42.38
    0.0274              -52.63          11.55          21.73          66.87          -5.69          10.28          50.74          64.76          179.0          130.0          42.38
   0.05479              -52.63          11.55          21.74          66.87         -5.691          10.28          50.73          64.76          178.9          130.0          42.38
   0.08219              -52.62          11.56          21.74          66.87         -5.692          10.28          50.72          64.76          178.9          130.0          42.38
    0.1096              -52.62          11.56          21.75          66.87         -5.693          10.28          50.71          64.76          178.8          130.0          42.38
     0.137              -52.62          11.56          21.75          66.87         -5.695          10.28          50.69          64.77          178.8          130.0          42.38
    0.1644              -52.62          11.57          21.75          66.87         -5.696          10.28          50.68          64.77          178.7          130.0          42.38
    0.1918              -52.62          11.57          21.76          66.87         -5.697          10.28          50.67          64.77          178.7          130.0          42.38
    0.2192              -52.61          11.58          21.76          66.87         -5.699          10.28          50.65          64.77          178.6          130.0          42.38
    0.2466              -52.61          11.58          21.77          66.87           -5.7          10.28          50.63          64.77          178.6          130.0          42.38
     0.274              -52.61          11.59          21.78          66.87         -5.702          10.28          50.62          64.77          178.5          129.9          42.38
    0.3013              -52.61           11.6          21.78          66.87         -5.704          10.29           50.6          64.77          178.4          129.9          42.38
    0.3287               -52.6           11.6          21.79          66.87         -5.706          10.29          50.58          64.78          178.3          129.9          42.38
    0.3561               -52.6          11.61           21.8          66.87         -5.708          10.29          50.55          64.78          178.3          129.9          42.38
    0.3835               -52.6          11.62          21.81          66.87         -5.711          10.29          50.53          64.78          178.2          129.9          42.38
    0.4109              -52.59          11.63          21.82          66.87         -5.714          10.29           50.5          64.78          178.1          129.9          42.38
    0.4383              -52.59          11.64          21.83          66.87         -5.716          10.29          50.47          64.79          178.0          129.9          42.38
    0.4657              -52.58          11.65          21.84          66.87         -5.719          10.29          50.44          64.79          177.8          129.8          42.38
    0.4931              -52.58          11.66          21.85          66.87         -5.723          10.29          50.41          64.79          177.7          129.8          42.38
    0.5205              -52.57          11.67          21.86          66.88         -5.727          10.29          50.37           64.8          177.6          129.8          42.38
    0.5479              -52.57          11.69          21.88          66.88         -5.731          10.29          50.33           64.8          177.4          129.8          42.38
    0.5753              -52.56           11.7          21.89          66.88         -5.735          10.29          50.28           64.8          177.3          129.8          42.38
    0.6027              -52.55          11.72          21.91          66.88          -5.74          10.29          50.23          64.81          177.1          129.7          42.38
    0.6301              -52.55          11.74          21.93          66.88         -5.745           10.3          50.18          64.81          176.9          129.7          42.38
    0.6575              -52.54          11.76          21.95          66.88         -5.752           10.3          50.12          64.82          176.6          129.7          42.38
    0.6849              -52.53          11.78          21.97          66.88         -5.758           10.3          50.05          64.83          176.4          129.6          42.38
    0.7123              -52.51          11.81           22.0          66.89         -5.766           10.3          49.97          64.83          176.1          129.6          42.38
    0.7397               -52.5          11.84          22.03          66.89         -5.775           10.3          49.88          64.84          175.8          129.5          42.38
    0.7671              -52.49          11.87          22.07          66.89         -5.784          10.31          49.79          64.85          175.4          129.5          42.38
    0.7945              -52.47          11.91           22.1          66.89         -5.795          10.31          49.68          64.86          175.0          129.4          42.38
    0.8219              -52.45          11.96          22.15           66.9         -5.808          10.31          49.55          64.87          174.6          129.4          42.38
    0.8493              -52.43          12.01           22.2           66.9         -5.822          10.31           49.4          64.89          174.0          129.3          42.38
    0.8766              -52.41          12.06          22.26          66.91         -5.839          10.32          49.24           64.9          173.4          129.2          42.38
     0.904              -52.38          12.13          22.33          66.91         -5.858          10.32          49.04          64.92          172.7          129.1          42.38
    0.9314              -52.35          12.21          22.41          66.92         -5.881          10.33          48.81          64.94          171.8          128.9          42.38
    0.9588              -52.31           12.3           22.5          66.92         -5.907          10.34          48.54          64.97          170.8          128.8          42.38
    0.9862              -52.26          12.41          22.61          66.93         -5.939          10.34          48.22           65.0          169.7          128.6          42.38
     1.014               -52.2          12.54          22.75          66.94         -5.977          10.35          47.84          65.03          168.2          128.4          42.38
     1.041              -52.14           12.7          22.91          66.95         -6.023          10.37          47.38          65.08          166.5          128.1          42.38
     1.068              -52.05          12.89           23.1          66.97         -6.079          10.38          46.81          65.13          164.4          127.8          42.38
     1.096              -51.95          13.13          23.35          66.99         -6.148           10.4          46.11           65.2          161.8          127.4          42.38
     1.123              -51.83          13.43          23.65          67.01         -6.234          10.42          45.24          65.28          158.6          127.0          42.38
     1.151              -51.67          13.81          24.04          67.04         -6.343          10.45          44.14          65.38          154.6          126.3          42.39
     1.178              -51.46          14.28          24.52          67.07         -6.481          10.48          42.74          65.51          149.4          125.6          42.39
     1.205               -51.2           14.9          25.15          67.12         -6.658          10.52          40.95          65.68          142.8          124.6          42.39
     1.233              -50.87          15.68          25.95          67.18         -6.885          10.58          38.66           65.9          134.3          123.3          42.39
      1.26              -50.44          16.68          26.97          67.26         -7.174          10.65          35.72          66.18          123.5          121.7           42.4
     1.288               -49.9          17.94          28.26          67.35         -7.539          10.74          32.04          66.52          109.9          119.6           42.4
     1.315              -49.25          19.48          29.82          67.47         -7.983          10.85          27.55          66.95          93.32          117.1          42.41
     1.342              -48.49          21.26          31.64           67.6         -8.497          10.98          22.34          67.44          74.09          114.2          42.41
      1.37              -47.67          23.19           33.6          67.75         -9.055          11.12           16.7          67.97          53.28          111.1          42.42
     1.397              -46.85          25.12          35.57           67.9         -9.612          11.26          11.07           68.5          32.46          108.0          42.43
     1.425              -46.09           26.9          37.39          68.03         -10.13          11.39          5.858          68.99          13.24          105.1          42.43
     1.452              -45.44          28.43          38.95          68.15         -10.57           11.5          1.367          69.41         -3.344          102.6          42.44
     1.479               -44.9          29.69          40.24          68.24         -10.94          11.59         -2.319          69.76         -16.95          100.5          42.44
     1.507              -44.47           30.7          41.26          68.32         -11.22          11.67         -5.251          70.03         -27.78           98.9          42.45
     1.534              -44.14          31.48          42.06          68.38         -11.45          11.72         -7.546          70.25         -36.25          97.63          42.45
     1.562              -43.88          32.09          42.68          68.43         -11.63          11.77         -9.334          70.42         -42.85          96.63          42.45
     1.589              -43.68          32.57          43.17          68.46         -11.77           11.8         -10.73          70.55         -48.01          95.86          42.45
     1.616              -43.52          32.95          43.56          68.49         -11.88          11.83         -11.83          70.65         -52.07          95.25          42.45
     1.644              -43.39          33.24          43.86          68.51         -11.96          11.85          -12.7          70.74         -55.29          94.76          42.45
     1.671              -43.29          33.48           44.1          68.53         -12.03          11.87          -13.4           70.8         -57.87          94.37          42.46
     1.699               -43.2          33.68           44.3          68.55         -12.09          11.88         -13.97          70.86         -59.97          94.06          42.46
     1.726              -43.14          33.84          44.46          68.56         -12.13          11.89         -14.43           70.9         -61.68           93.8          42.46
     1.753              -43.08          33.97           44.6          68.57         -12.17           11.9         -14.82          70.94          -63.1          93.59          42.46
